<?xml version="1.0" standalone="no"?>
<!DOCTYPE svg PUBLIC "-//W3C//DTD SVG 20010904//EN"
 "http://www.w3.org/TR/2001/REC-SVG-20010904/DTD/svg10.dtd">
<svg version="1.0" xmlns="http://www.w3.org/2000/svg"
 width="78.000000pt" height="74.000000pt" viewBox="0 0 78.000000 74.000000"
 preserveAspectRatio="xMidYMid meet">

<g transform="translate(0.000000,74.000000) scale(0.100000,-0.100000)"
fill="#000000" stroke="none">
<path d="M295 687 c-58 -19 -82 -34 -132 -80 -128 -118 -138 -319 -22 -450 80
-91 212 -133 327 -103 253 64 342 366 162 546 -83 83 -230 121 -335 87z m163
-33 c12 -4 22 -13 22 -20 0 -8 5 -14 11 -14 5 0 7 5 4 10 -8 13 1 13 26 -1 19
-10 20 -11 3 -23 -13 -10 -15 -20 -10 -42 7 -28 7 -28 -12 -11 -18 17 -20 17
-26 1 -4 -10 -3 -20 2 -23 15 -10 5 -84 -13 -97 -9 -7 -21 -29 -25 -49 -7 -33
-5 -41 16 -62 16 -16 33 -23 52 -21 15 2 29 -1 30 -7 2 -5 8 -18 14 -29 7 -12
7 -25 0 -40 -6 -11 -15 -36 -21 -54 -13 -40 -1 -42 48 -5 l36 26 -25 -28 c-54
-60 -192 -96 -251 -65 -20 11 -26 58 -10 76 5 5 11 27 13 48 3 34 0 41 -19 45
-30 8 -93 66 -93 85 0 9 -15 24 -34 33 -25 12 -33 21 -30 36 6 32 43 65 95 83
43 16 49 22 49 45 0 16 6 32 13 36 6 4 12 14 12 21 0 6 5 11 10 10 6 -2 9 -13
7 -25 -3 -28 0 -28 50 -6 29 13 38 22 36 38 -2 16 -11 20 -43 22 -22 0 -47 -3
-55 -7 -9 -5 -22 -5 -30 0 -10 6 -7 9 11 13 38 7 112 7 137 1z m-196 -86 c-6
-6 -15 -8 -19 -4 -4 4 -1 11 7 16 19 12 27 3 12 -12z m288 -88 c12 -8 11 -10
-7 -10 -13 0 -23 5 -23 10 0 13 11 13 30 0z m75 -23 c12 -3 4 -5 -17 -6 -30
-1 -36 2 -32 14 4 10 10 12 18 6 6 -5 20 -11 31 -14z m-475 -32 c0 -8 -9 -19
-20 -25 -21 -11 -25 -4 -14 24 8 20 34 21 34 1z m16 -54 c27 5 54 -3 54 -15 0
-9 -13 -13 -40 -13 -22 0 -40 3 -40 8 0 4 -3 16 -7 26 -6 15 -4 16 9 5 9 -7
20 -12 24 -11z m-13 -89 c-3 -11 21 -44 71 -97 41 -44 73 -81 71 -83 -2 -3
-24 7 -48 21 -78 46 -128 118 -142 205 l-7 37 30 -33 c18 -19 28 -40 25 -50z
m505 -27 c-6 -14 -13 -23 -15 -21 -5 5 15 46 22 46 3 0 -1 -11 -7 -25z"/>
<path d="M438 583 c7 -3 16 -2 19 1 4 3 -2 6 -13 5 -11 0 -14 -3 -6 -6z"/>
</g>
</svg>
