<svg width="109" height="120" viewBox="0 0 109 120" fill="none" xmlns="http://www.w3.org/2000/svg">
<path d="M69.0056 69.5701C67.8742 69.5652 66.8573 68.8821 66.4247 67.8368C65.992 66.7905 66.2299 65.5877 67.0275 64.7861L98.527 33.2716C99.4773 32.378 99.8169 31.0127 99.3971 29.7776C99.0242 28.7226 98.1942 27.8916 97.1382 27.5187C96.1693 27.186 95.1025 27.2936 94.2198 27.8133C92.8995 28.4475 91.3129 27.9582 90.579 26.6907C89.844 25.4233 90.208 23.8044 91.4138 22.9725C93.7099 21.619 96.4835 21.3371 99.0048 22.2013C101.596 23.1154 103.651 25.1288 104.617 27.7017C105.235 29.3244 105.364 31.0939 104.988 32.7892C104.612 34.4853 103.746 36.0336 102.498 37.2422L70.9983 68.7567C70.4688 69.2813 69.7524 69.5749 69.0056 69.57L69.0056 69.5701Z" fill="black"/>
<path d="M78.8148 75.646C77.656 75.6705 76.601 74.9805 76.1595 73.9078C75.7181 72.8361 75.9823 71.6029 76.823 70.8052L102.204 45.5495C102.976 44.837 103.251 43.735 102.906 42.7436C102.571 41.7688 101.752 41.0396 100.745 40.8214C99.8208 40.6276 98.8607 40.9124 98.1913 41.5789L93.9818 45.7884H93.9828C92.8856 46.8846 91.1082 46.8846 90.011 45.7884C88.9149 44.6913 88.9149 42.9138 90.011 41.8176L94.2206 37.6081C96.226 35.6047 99.1053 34.7443 101.882 35.3208C104.742 35.914 107.098 37.9321 108.125 40.6666C108.692 42.169 108.804 43.8053 108.45 45.3713C108.096 46.9372 107.29 48.3651 106.133 49.4781L80.7942 74.8315C80.2676 75.3531 79.5561 75.6458 78.8152 75.6458L78.8148 75.646Z" fill="black"/>
<path d="M76.9481 77.5126C75.8138 77.5136 74.791 76.8324 74.3544 75.7852C73.9188 74.739 74.1557 73.5322 74.9553 72.7287L76.8217 70.8065C77.9179 69.7094 79.6953 69.7094 80.7925 70.8065C81.8887 71.9027 81.8887 73.6811 80.7925 74.7773L78.9261 76.6437C78.4093 77.1859 77.6968 77.4991 76.9481 77.5128L76.9481 77.5126Z" fill="black"/>
<path d="M47.2025 119.157C46.0398 119.182 44.9818 118.487 44.5434 117.41C44.1039 116.333 44.375 115.096 45.2246 114.302L50.1632 109.363C50.263 109.261 50.3707 109.167 50.4862 109.082L69.1338 95.4434L80.99 84.4858L102.358 63.1868C103.191 62.353 103.549 61.1569 103.313 60.002C103.047 58.7591 102.154 57.7441 100.955 57.3224C99.705 56.8986 98.323 57.2441 97.4198 58.2062L92.8317 62.7943C91.7355 63.8905 89.9571 63.8905 88.8609 62.7943C87.7648 61.6981 87.7648 59.9197 88.8609 58.8235L93.449 54.2354C94.6656 52.9768 96.2257 52.1057 97.9354 51.7289C99.6443 51.3521 101.427 51.4871 103.06 52.1165C106.005 53.243 108.174 55.7916 108.813 58.8794C109.43 61.881 108.497 64.9924 106.329 67.1574L84.8901 88.5972L72.8373 99.7518L72.5848 99.9622L53.9793 113.572L49.1942 118.357H49.1952C48.6638 118.877 47.9464 119.165 47.2025 119.157L47.2025 119.157Z" fill="black"/>
<path d="M23.3775 91.4032C22.2647 91.3935 21.2634 90.7279 20.8241 89.7052C17.5551 82.0869 24.0236 64.9964 25.3566 61.6433L25.427 61.475H25.4261C26.9578 58.2629 28.2801 54.9538 29.383 51.5694C31.5294 44.9883 35.3043 33.2174 36.5248 28.264C37.3254 25.5853 39.4041 23.4789 42.0723 22.6421C44.7412 21.8063 47.6501 22.3494 49.8364 24.0916C52.0238 25.8347 53.2023 28.5486 52.9831 31.337C52.295 36.3737 48.886 64.5478 48.886 64.8284C48.7001 66.3777 47.2927 67.4837 45.7424 67.2977C44.193 67.1118 43.087 65.7043 43.273 64.155C43.273 63.8741 46.7104 35.6597 47.3836 30.5785L47.3846 30.5775C47.6811 29.0487 46.7132 27.5601 45.1952 27.2106C43.6537 27.0129 42.2249 28.0533 41.94 29.582C40.7333 34.4513 37.3233 45.1564 34.6858 53.2808L34.6867 53.2798C33.5113 56.8657 32.1048 60.3707 30.4772 63.7747C27.6713 70.7198 24.0931 83.2073 25.9174 87.4587V87.4597C26.2903 88.3268 26.2012 89.3241 25.6815 90.113C25.1618 90.9009 24.28 91.3756 23.3355 91.3736L23.3775 91.4032Z" fill="black"/>
<path d="M2.80968 112.898C1.6861 112.899 0.670188 112.231 0.227737 111.198C-0.215616 110.165 -0.000307403 108.969 0.774842 108.155L21.597 86.4069C22.6814 85.3675 24.3922 85.3645 25.4786 86.403C26.5649 87.4404 26.6413 89.1493 25.6518 90.2798L4.84417 112.084C4.30393 112.62 3.56988 112.914 2.80941 112.898L2.80968 112.898Z" fill="black"/>
<path d="M59.3945 65.1929C58.6673 65.1939 57.9685 64.912 57.4449 64.408L53.8247 60.9845C52.7911 59.8961 52.797 58.1873 53.8364 57.1067C54.8768 56.0252 56.5837 55.9527 57.7112 56.9432L59.3525 58.515L84.6082 33.2593C87.6805 30.1793 89.4058 26.0061 89.4058 21.6557C89.4058 17.3054 87.6803 13.1319 84.6082 10.0522C78.406 3.84998 67.9953 4.15916 61.4008 10.7539C60.8752 11.2805 60.1607 11.577 59.4159 11.577C58.6711 11.577 57.9567 11.2805 57.4301 10.7539C54.3255 7.61022 50.1425 5.7644 45.7285 5.59027C41.4388 5.38865 37.2616 7.00354 34.2227 10.0386C31.1436 13.1146 29.4133 17.2891 29.4133 21.6414C29.4133 25.9948 31.1437 30.169 34.2227 33.245L36.4121 35.4344C37.5082 36.5306 37.5082 38.308 36.4121 39.4052C35.3159 40.5013 33.5375 40.5013 32.4413 39.4052L30.2519 37.2158C26.1236 33.0874 23.8042 27.4883 23.8042 21.6492C23.8042 15.8101 26.1238 10.21 30.2519 6.0816C34.3948 1.96026 40.0733 -0.238082 45.9104 0.0204877C50.8285 0.202529 55.5567 1.96325 59.3942 5.04331C68.1918 -1.97216 80.7636 -1.66398 88.551 6.11012C92.6733 10.2422 94.9879 15.8406 94.9879 21.6767C94.9879 27.5138 92.6732 33.1122 88.551 37.2443L61.3886 64.4217C60.8522 64.9316 60.1358 65.2086 59.3959 65.1929L59.3945 65.1929Z" fill="black"/>
</svg>
