<svg width="49" height="55" viewBox="0 0 49 55" fill="none" xmlns="http://www.w3.org/2000/svg">
<circle cx="8.5" cy="4.5" r="4.5" fill="black"/>
<circle cx="4.5" cy="4.5" r="4.5" transform="matrix(-1 0 0 1 44.1294 0)" fill="black"/>
<path d="M0.770761 12.7509C0.900334 11.196 2.20013 10 3.7604 10H12C13.6569 10 15 11.3431 15 13V28C15 29.6569 13.6569 31 12 31H4.58017C2.54197 31 0.829717 29.4675 0.604636 27.4417L0.032203 22.2898C0.0107848 22.0971 0.00811028 21.9027 0.024217 21.7094L0.770761 12.7509Z" fill="black"/>
<path d="M47.3586 12.7509C47.2291 11.196 45.9293 10 44.369 10H36.1294C34.4725 10 33.1294 11.3431 33.1294 13V28C33.1294 29.6569 34.4725 31 36.1294 31H43.5492C45.5874 31 47.2997 29.4675 47.5248 27.4417L48.0972 22.2898C48.1186 22.0971 48.1213 21.9027 48.1052 21.7094L47.3586 12.7509Z" fill="black"/>
<rect x="3" y="24" width="6" height="31" rx="3" fill="black"/>
<rect width="6" height="31" rx="3" transform="matrix(-1 0 0 1 45.1294 24)" fill="black"/>
<rect x="9" y="24" width="6" height="31" rx="3" fill="black"/>
<rect width="6" height="31" rx="3" transform="matrix(-1 0 0 1 39.1294 24)" fill="black"/>
<path d="M10.5 13.1458C10.2239 12.6675 10.3877 12.0559 10.866 11.7798L12.7821 10.6735C13.2604 10.3974 13.872 10.5613 14.1481 11.0396L20.455 21.9634C20.7311 22.4417 20.5672 23.0533 20.0889 23.3294L19.0389 23.9356C18.0823 24.4879 16.8591 24.1602 16.3069 23.2036L10.5 13.1458Z" fill="black"/>
<path d="M37.6294 13.1458C37.9055 12.6675 37.7417 12.0559 37.2634 11.7798L35.3473 10.6735C34.869 10.3974 34.2574 10.5613 33.9813 11.0396L27.6744 21.9634C27.3983 22.4417 27.5622 23.0533 28.0405 23.3294L29.0905 23.9356C30.0471 24.4879 31.2703 24.1602 31.8225 23.2036L37.6294 13.1458Z" fill="black"/>
<g style="mix-blend-mode:color-burn">
<rect x="16" y="23.3784" width="3.90127" height="9.44378" rx="1" transform="rotate(-60 16 23.3784)" fill="black"/>
<circle cx="3" cy="3" r="3" transform="matrix(-1 0 0 1 27 22)" fill="white"/>
</g>
<path d="M31.2634 23.8784C31.7417 23.6023 31.9055 22.9907 31.6294 22.5124L30.6788 20.8658C30.4026 20.3876 29.791 20.2237 29.3127 20.4998L23.6895 23.7464C22.7565 24.285 22.4369 25.478 22.9755 26.411V26.411C23.5142 27.344 24.7072 27.6636 25.6401 27.125L31.2634 23.8784Z" fill="black"/>
</svg>
