<?xml version="1.0" standalone="no"?>
<!DOCTYPE svg PUBLIC "-//W3C//DTD SVG 20010904//EN"
 "http://www.w3.org/TR/2001/REC-SVG-20010904/DTD/svg10.dtd">
<svg version="1.0" xmlns="http://www.w3.org/2000/svg"
 width="72.000000pt" height="58.000000pt" viewBox="0 0 72.000000 58.000000"
 preserveAspectRatio="xMidYMid meet">

<g transform="translate(0.000000,58.000000) scale(0.100000,-0.100000)"
fill="#000000" stroke="none">
<path d="M216 534 c-24 -23 -30 -61 -17 -104 23 -78 101 -117 135 -68 57 81
-52 239 -118 172z"/>
<path d="M436 518 c-54 -54 -56 -140 -4 -172 46 -28 118 44 118 118 0 86 -56
112 -114 54z"/>
<path d="M594 380 c-56 -22 -95 -115 -62 -148 28 -28 114 5 137 53 22 45 22
64 2 84 -22 22 -43 25 -77 11z"/>
<path d="M77 342 c-37 -40 -4 -122 59 -148 32 -14 38 -13 61 1 22 15 25 22 20
58 -4 31 -15 50 -41 74 -40 37 -75 42 -99 15z"/>
<path d="M304 248 c-95 -64 -144 -176 -92 -212 28 -20 53 -20 112 0 44 15 52
15 117 -2 63 -16 73 -17 97 -3 63 35 21 146 -82 216 -60 41 -91 42 -152 1z"/>
</g>
</svg>
