<svg width="82" height="48" viewBox="0 0 82 48" fill="none" xmlns="http://www.w3.org/2000/svg">
<path d="M58.5203 22.8512C58.9135 23.5647 59.307 24.2787 59.7006 24.9904C57.1771 29.1384 54.6592 33.1922 52.2746 36.6643C50.2504 39.6116 48.3805 42.0518 46.7422 43.736C45.9228 44.5784 45.2129 45.1775 44.6192 45.5548C44.0069 45.9439 43.6704 46 43.5572 46C43.2907 46 42.7498 45.8673 41.8759 45.2909C41.0297 44.7328 40.0443 43.874 38.9311 42.7191C36.7063 40.4109 34.1859 37.1476 31.4984 33.3882C29.5398 30.6483 27.4808 27.6243 25.4066 24.5666C30.6606 16.7192 36.8485 8.40134 44.1368 2.13024C44.3776 2.22485 44.6743 2.38154 45.032 2.6327C45.7543 3.13983 46.5813 3.93194 47.5035 5.01909C49.348 7.19372 51.3505 10.2798 53.453 13.8506C55.1244 16.6892 56.8196 19.7652 58.5203 22.8512ZM11.9875 12.4062C14.7186 15.9687 17.624 20.2178 20.5873 24.5884C19.2039 26.6944 17.8996 28.7324 16.6735 30.6482C15.4291 32.5927 14.2652 34.4113 13.1809 36.0474C11.496 38.5897 10.0302 40.656 8.75269 42.1256C8.11538 42.8586 7.56578 43.3952 7.09961 43.757C6.62832 44.1227 6.34603 44.2283 6.2326 44.2527C6.15199 44.191 5.939 43.9846 5.6613 43.4322C5.04785 42.2118 4.45136 39.9879 3.96165 36.3628C2.56472 26.022 1.96944 18.5254 2.0012 13.3005C2.01709 10.6867 2.19002 8.70136 2.47564 7.242C2.76872 5.74453 3.14469 4.9937 3.41702 4.66395C3.58678 4.4584 3.64927 4.46487 3.76164 4.47652C3.76517 4.47688 3.76875 4.47725 3.77238 4.47762C4.05809 4.50668 4.62454 4.70611 5.51176 5.3612C7.26589 6.65639 9.4621 9.11204 11.9875 12.4062ZM64.3256 25.0795C64.7139 24.4381 65.1011 23.7977 65.4864 23.1603C66.459 21.5513 67.4202 19.9614 68.3603 18.4226C70.4369 15.0234 72.4129 11.8686 74.2097 9.25227C76.0287 6.6037 77.5797 4.63363 78.7991 3.51407C79.1213 3.2182 79.3776 3.02243 79.57 2.89588C79.6183 3.03916 79.6722 3.22968 79.7247 3.4792C79.893 4.27825 80 5.44566 80 7.07002C80 17.4619 79.6078 25.0747 78.9104 30.4604C78.5617 33.1531 78.1422 35.2454 77.6744 36.8282C77.1997 38.4344 76.7105 39.3925 76.2946 39.9192C75.9234 40.3891 75.7172 40.396 75.6762 40.3974L75.6732 40.3975C75.5514 40.403 75.1862 40.3545 74.5129 39.8697C73.1368 38.8789 71.4264 36.7693 69.4431 33.726C67.8093 31.2191 66.0932 28.2447 64.3256 25.0795Z" fill="#25CC8C" stroke="#77D1C4" stroke-width="4"/>
</svg>
