<?xml version="1.0" standalone="no"?>
<!DOCTYPE svg PUBLIC "-//W3C//DTD SVG 20010904//EN"
 "http://www.w3.org/TR/2001/REC-SVG-20010904/DTD/svg10.dtd">
<svg version="1.0" xmlns="http://www.w3.org/2000/svg"
 width="75.000000pt" height="68.000000pt" viewBox="0 0 75.000000 68.000000"
 preserveAspectRatio="xMidYMid meet">

<g transform="translate(0.000000,68.000000) scale(0.100000,-0.100000)"
fill="#000000" stroke="none">
<path d="M543 518 c-40 -57 -63 -103 -63 -127 0 -82 92 -127 167 -82 34 21 49
62 38 109 -8 35 -77 136 -97 140 -8 1 -28 -17 -45 -40z m43 -158 c16 0 19 -16
4 -25 -24 -15 -79 42 -64 67 5 7 14 2 26 -15 11 -15 26 -27 34 -27z"/>
<path d="M87 403 c-4 -3 -7 -64 -7 -135 l0 -128 38 0 c62 0 67 8 70 120 5 120
-8 150 -62 150 -18 0 -36 -3 -39 -7z"/>
<path d="M210 275 c0 -56 3 -75 13 -75 8 0 32 -13 53 -28 63 -46 95 -52 265
-52 149 0 159 1 159 19 0 36 -25 44 -113 39 -69 -5 -92 -2 -142 17 -32 12 -61
27 -63 33 -6 18 19 15 76 -9 50 -21 82 -20 82 1 0 13 -185 102 -245 119 -82
23 -85 21 -85 -64z"/>
</g>
</svg>
